<svg xmlns="http://www.w3.org/2000/svg" xmlns:xlink="http://www.w3.org/1999/xlink" width="500" zoomAndPan="magnify" viewBox="0 0 375 374.999991" height="500" preserveAspectRatio="xMidYMid meet" version="1.0"><defs><filter x="0%" y="0%" width="100%" height="100%" id="ad5f99f9da"><feColorMatrix values="0 0 0 0 1 0 0 0 0 1 0 0 0 0 1 0 0 0 1 0" color-interpolation-filters="sRGB"></feColorMatrix></filter><filter x="0%" y="0%" width="100%" height="100%" id="83574f3c2f"><feColorMatrix values="0 0 0 0 1 0 0 0 0 1 0 0 0 0 1 0.2126 0.7152 0.0722 0 0" color-interpolation-filters="sRGB"></feColorMatrix></filter><g></g><clipPath id="65c38bd7c1"><path d="M 19.0625 5 L 375 5 L 375 375 L 19.0625 375 Z M 19.0625 5 " clip-rule="nonzero"></path></clipPath><mask id="b2e9c41a32"><g filter="url(#ad5f99f9da)"><g filter="url(#83574f3c2f)" transform="matrix(0.816, 0, 0, 0.816, -1.509173, 4.60524)"><image x="0" y="0" width="500" height="500" preserveAspectRatio="xMidYMid meet"></image></g></g></mask><clipPath id="d0cde65261"><rect x="0" width="116" y="0" height="19"></rect></clipPath></defs><g clip-path="url(#65c38bd7c1)"><g mask="url(#b2e9c41a32)"><g transform="matrix(0.816, 0, 0, 0.816, -1.509173, 4.60524)"><image x="0" y="0" width="500" height="500" preserveAspectRatio="xMidYMid meet"></image></g></g></g><g fill="#004aad" fill-opacity="0.4"><g transform="translate(152.734154, 215.815827)"><g><path d="M 17.375 0 L 2.0625 0 C 2.0625 -3.8125 2.195312 -7.164062 2.46875 -10.0625 C 2.75 -12.96875 3.0625 -15.679688 3.40625 -18.203125 C 3.757812 -20.734375 4.070312 -23.320312 4.34375 -25.96875 C 4.625 -28.613281 4.765625 -31.566406 4.765625 -34.828125 C 4.765625 -37.910156 4.53125 -40.4375 4.0625 -42.40625 C 3.601562 -44.382812 3.15625 -45.859375 2.71875 -46.828125 C 2.28125 -47.796875 2.0625 -48.28125 2.0625 -48.28125 C 2.0625 -48.28125 2.472656 -48.28125 3.296875 -48.28125 C 4.128906 -48.28125 5.164062 -48.28125 6.40625 -48.28125 C 7.65625 -48.28125 8.890625 -48.28125 10.109375 -48.28125 C 11.328125 -48.28125 12.347656 -48.28125 13.171875 -48.28125 C 14.003906 -48.28125 14.421875 -48.28125 14.421875 -48.28125 C 15.203125 -47.675781 15.804688 -46.84375 16.234375 -45.78125 C 16.671875 -44.726562 16.984375 -43.660156 17.171875 -42.578125 C 17.359375 -41.503906 17.472656 -40.597656 17.515625 -39.859375 C 17.566406 -39.128906 17.59375 -38.765625 17.59375 -38.765625 C 17.59375 -36.367188 17.359375 -33.769531 16.890625 -30.96875 C 16.429688 -28.164062 16.15625 -24.96875 16.0625 -21.375 C 16.707031 -22.019531 17.570312 -22.523438 18.65625 -22.890625 C 19.738281 -23.265625 20.832031 -23.632812 21.9375 -24 C 23.039062 -24.363281 23.96875 -24.832031 24.71875 -25.40625 C 25.476562 -25.988281 25.859375 -26.804688 25.859375 -27.859375 C 25.859375 -29.878906 25.695312 -31.488281 25.375 -32.6875 C 25.050781 -33.882812 24.890625 -34.484375 24.890625 -34.484375 C 24.890625 -34.484375 25.328125 -34.484375 26.203125 -34.484375 C 27.078125 -34.484375 28.15625 -34.484375 29.4375 -34.484375 C 30.726562 -34.484375 32.019531 -34.484375 33.3125 -34.484375 C 34.601562 -34.484375 35.679688 -34.484375 36.546875 -34.484375 C 37.421875 -34.484375 37.859375 -34.484375 37.859375 -34.484375 C 38.410156 -33.890625 38.800781 -33.097656 39.03125 -32.109375 C 39.257812 -31.117188 39.394531 -30.234375 39.4375 -29.453125 C 39.488281 -28.671875 39.515625 -28.28125 39.515625 -28.28125 C 39.515625 -25.425781 38.570312 -23.398438 36.6875 -22.203125 C 34.800781 -21.015625 32.203125 -20.421875 28.890625 -20.421875 C 28.578125 -20.421875 28.242188 -20.421875 27.890625 -20.421875 C 27.546875 -20.421875 27.191406 -20.421875 26.828125 -20.421875 C 25.628906 -20.421875 24.421875 -20.394531 23.203125 -20.34375 C 21.984375 -20.300781 20.957031 -20.195312 20.125 -20.03125 C 19.300781 -19.875 18.890625 -19.613281 18.890625 -19.25 C 18.890625 -18.96875 19.515625 -18.828125 20.765625 -18.828125 C 21.398438 -18.785156 22.164062 -18.785156 23.0625 -18.828125 C 23.96875 -18.867188 24.925781 -18.890625 25.9375 -18.890625 C 27.59375 -18.890625 29.316406 -18.773438 31.109375 -18.546875 C 32.898438 -18.316406 34.578125 -17.832031 36.140625 -17.09375 C 37.703125 -16.363281 38.960938 -15.265625 39.921875 -13.796875 C 40.890625 -12.328125 41.375 -10.347656 41.375 -7.859375 C 41.375 -6.898438 41.375 -5.910156 41.375 -4.890625 C 41.375 -3.878906 41.453125 -3.015625 41.609375 -2.296875 C 41.773438 -1.585938 42.085938 -1.234375 42.546875 -1.234375 C 41.859375 -0.773438 41.019531 -0.40625 40.03125 -0.125 C 39.039062 0.144531 38.070312 0.335938 37.125 0.453125 C 36.1875 0.566406 35.40625 0.632812 34.78125 0.65625 C 34.164062 0.675781 33.859375 0.6875 33.859375 0.6875 C 31.335938 0.6875 29.363281 0.09375 27.9375 -1.09375 C 26.507812 -2.289062 25.796875 -3.878906 25.796875 -5.859375 C 25.796875 -7.328125 25.929688 -8.460938 26.203125 -9.265625 C 26.484375 -10.078125 26.757812 -10.816406 27.03125 -11.484375 C 27.3125 -12.148438 27.453125 -13.007812 27.453125 -14.0625 C 27.453125 -14.757812 27.003906 -15.195312 26.109375 -15.375 C 25.210938 -15.5625 24.117188 -15.664062 22.828125 -15.6875 C 21.535156 -15.707031 20.257812 -15.796875 19 -15.953125 C 17.738281 -16.117188 16.757812 -16.503906 16.0625 -17.109375 C 16.113281 -15.773438 16.1875 -14.671875 16.28125 -13.796875 C 16.375 -12.921875 16.488281 -12.113281 16.625 -11.375 C 16.757812 -10.644531 16.882812 -9.832031 17 -8.9375 C 17.113281 -8.039062 17.203125 -6.890625 17.265625 -5.484375 C 17.335938 -4.078125 17.375 -2.25 17.375 0 Z M 17.375 0 "></path></g></g></g><g fill="#004aad" fill-opacity="0.4"><g transform="translate(196.450261, 215.815827)"><g><path d="M 2.0625 -7.515625 C 2.0625 -9.679688 2.585938 -11.53125 3.640625 -13.0625 C 4.703125 -14.601562 6.0625 -15.925781 7.71875 -17.03125 C 9.375 -18.132812 11.164062 -19.113281 13.09375 -19.96875 C 15.03125 -20.820312 16.894531 -21.625 18.6875 -22.375 C 20.476562 -23.132812 22.003906 -23.9375 23.265625 -24.78125 C 24.535156 -25.632812 25.332031 -26.613281 25.65625 -27.71875 C 25.332031 -28.914062 24.789062 -29.867188 24.03125 -30.578125 C 23.269531 -31.296875 22.222656 -31.65625 20.890625 -31.65625 C 19.378906 -31.65625 18.332031 -31.378906 17.75 -30.828125 C 17.175781 -30.273438 16.878906 -29.582031 16.859375 -28.75 C 16.835938 -27.925781 16.914062 -27.125 17.09375 -26.34375 C 17.28125 -25.5625 17.375 -24.921875 17.375 -24.421875 C 15.539062 -23.453125 13.863281 -22.769531 12.34375 -22.375 C 10.820312 -21.988281 9.613281 -21.75 8.71875 -21.65625 C 7.820312 -21.5625 7.375 -21.515625 7.375 -21.515625 C 5.945312 -21.515625 4.703125 -21.859375 3.640625 -22.546875 C 2.585938 -23.242188 2.0625 -24.554688 2.0625 -26.484375 C 2.0625 -28.554688 3.039062 -30.40625 5 -32.03125 C 6.957031 -33.664062 10.023438 -34.484375 14.203125 -34.484375 L 23.25 -34.484375 C 26.1875 -34.484375 28.722656 -33.863281 30.859375 -32.625 C 33.003906 -31.382812 34.660156 -29.691406 35.828125 -27.546875 C 37.003906 -25.410156 37.59375 -22.960938 37.59375 -20.203125 C 37.59375 -17.171875 37.691406 -14.644531 37.890625 -12.625 C 38.097656 -10.601562 38.335938 -8.898438 38.609375 -7.515625 C 38.890625 -6.140625 39.132812 -4.921875 39.34375 -3.859375 C 39.550781 -2.804688 39.65625 -1.726562 39.65625 -0.625 L 39.65625 0 L 29.453125 0 C 27.378906 0 25.960938 -0.492188 25.203125 -1.484375 C 24.441406 -2.472656 24.0625 -3.75 24.0625 -5.3125 C 24.0625 -6.507812 24.242188 -8.148438 24.609375 -10.234375 C 24.984375 -12.328125 25.351562 -14.59375 25.71875 -17.03125 C 26.09375 -19.46875 26.253906 -21.742188 26.203125 -23.859375 C 25.742188 -22.710938 25.085938 -21.578125 24.234375 -20.453125 C 23.390625 -19.328125 22.53125 -18.140625 21.65625 -16.890625 C 20.78125 -15.648438 20.039062 -14.304688 19.4375 -12.859375 C 18.84375 -11.410156 18.546875 -9.8125 18.546875 -8.0625 C 18.546875 -6.5 18.890625 -5.257812 19.578125 -4.34375 C 20.273438 -3.425781 20.957031 -2.769531 21.625 -2.375 C 22.289062 -1.988281 22.625 -1.796875 22.625 -1.796875 C 22.625 -1.796875 22.265625 -1.585938 21.546875 -1.171875 C 20.835938 -0.753906 19.6875 -0.34375 18.09375 0.0625 C 16.507812 0.476562 14.382812 0.6875 11.71875 0.6875 C 8.6875 0.6875 6.316406 -0.09375 4.609375 -1.65625 C 2.910156 -3.21875 2.0625 -5.171875 2.0625 -7.515625 Z M 2.0625 -7.515625 "></path></g></g></g><g fill="#004aad" fill-opacity="0.4"><g transform="translate(237.270327, 215.815827)"><g><path d="M 17.375 0 L 2.0625 0 C 2.0625 -3.40625 2.28125 -6.472656 2.71875 -9.203125 C 3.15625 -11.941406 3.601562 -14.617188 4.0625 -17.234375 C 4.53125 -19.859375 4.765625 -22.617188 4.765625 -25.515625 C 4.765625 -27.585938 4.53125 -29.273438 4.0625 -30.578125 C 3.601562 -31.890625 3.15625 -32.867188 2.71875 -33.515625 C 2.28125 -34.160156 2.0625 -34.484375 2.0625 -34.484375 C 2.0625 -34.484375 2.472656 -34.484375 3.296875 -34.484375 C 4.128906 -34.484375 5.164062 -34.484375 6.40625 -34.484375 C 7.65625 -34.484375 8.890625 -34.484375 10.109375 -34.484375 C 11.328125 -34.484375 12.347656 -34.484375 13.171875 -34.484375 C 14.003906 -34.484375 14.421875 -34.484375 14.421875 -34.484375 C 15.054688 -34.160156 15.695312 -33.539062 16.34375 -32.625 C 17.257812 -33.175781 18.269531 -33.625 19.375 -33.96875 C 20.476562 -34.3125 21.742188 -34.484375 23.171875 -34.484375 L 29.9375 -34.484375 C 32 -34.484375 34.03125 -33.921875 36.03125 -32.796875 C 38.03125 -31.671875 39.6875 -30.023438 41 -27.859375 C 42.3125 -25.703125 42.96875 -23.0625 42.96875 -19.9375 C 42.96875 -17.820312 42.835938 -15.75 42.578125 -13.71875 C 42.328125 -11.695312 42.085938 -9.859375 41.859375 -8.203125 C 41.628906 -6.546875 41.546875 -5.222656 41.609375 -4.234375 C 41.679688 -3.253906 42.066406 -2.765625 42.765625 -2.765625 C 42.304688 -1.890625 41.566406 -1.21875 40.546875 -0.75 C 39.535156 -0.289062 38.46875 0.0351562 37.34375 0.234375 C 36.21875 0.441406 35.265625 0.566406 34.484375 0.609375 C 33.703125 0.660156 33.3125 0.6875 33.3125 0.6875 C 31.15625 0.6875 29.335938 0.207031 27.859375 -0.75 C 26.390625 -1.71875 25.65625 -3.257812 25.65625 -5.375 C 25.65625 -6.613281 25.800781 -7.726562 26.09375 -8.71875 C 26.394531 -9.707031 26.738281 -10.742188 27.125 -11.828125 C 27.519531 -12.910156 27.867188 -14.160156 28.171875 -15.578125 C 28.472656 -17.003906 28.625 -18.753906 28.625 -20.828125 C 28.625 -21.421875 28.625 -22.304688 28.625 -23.484375 C 28.625 -24.660156 28.507812 -25.867188 28.28125 -27.109375 C 28.050781 -28.347656 27.632812 -29.40625 27.03125 -30.28125 C 26.4375 -31.15625 25.539062 -31.59375 24.34375 -31.59375 C 22.738281 -31.59375 21.460938 -30.765625 20.515625 -29.109375 C 19.578125 -27.453125 18.890625 -25.160156 18.453125 -22.234375 C 18.015625 -19.316406 17.722656 -15.960938 17.578125 -12.171875 C 17.441406 -8.378906 17.375 -4.320312 17.375 0 Z M 17.375 0 "></path></g></g></g><g fill="#004aad" fill-opacity="0.4"><g transform="translate(281.400149, 215.815827)"><g><path d="M 2.0625 -7.515625 C 2.0625 -9.679688 2.585938 -11.53125 3.640625 -13.0625 C 4.703125 -14.601562 6.0625 -15.925781 7.71875 -17.03125 C 9.375 -18.132812 11.164062 -19.113281 13.09375 -19.96875 C 15.03125 -20.820312 16.894531 -21.625 18.6875 -22.375 C 20.476562 -23.132812 22.003906 -23.9375 23.265625 -24.78125 C 24.535156 -25.632812 25.332031 -26.613281 25.65625 -27.71875 C 25.332031 -28.914062 24.789062 -29.867188 24.03125 -30.578125 C 23.269531 -31.296875 22.222656 -31.65625 20.890625 -31.65625 C 19.378906 -31.65625 18.332031 -31.378906 17.75 -30.828125 C 17.175781 -30.273438 16.878906 -29.582031 16.859375 -28.75 C 16.835938 -27.925781 16.914062 -27.125 17.09375 -26.34375 C 17.28125 -25.5625 17.375 -24.921875 17.375 -24.421875 C 15.539062 -23.453125 13.863281 -22.769531 12.34375 -22.375 C 10.820312 -21.988281 9.613281 -21.75 8.71875 -21.65625 C 7.820312 -21.5625 7.375 -21.515625 7.375 -21.515625 C 5.945312 -21.515625 4.703125 -21.859375 3.640625 -22.546875 C 2.585938 -23.242188 2.0625 -24.554688 2.0625 -26.484375 C 2.0625 -28.554688 3.039062 -30.40625 5 -32.03125 C 6.957031 -33.664062 10.023438 -34.484375 14.203125 -34.484375 L 23.25 -34.484375 C 26.1875 -34.484375 28.722656 -33.863281 30.859375 -32.625 C 33.003906 -31.382812 34.660156 -29.691406 35.828125 -27.546875 C 37.003906 -25.410156 37.59375 -22.960938 37.59375 -20.203125 C 37.59375 -17.171875 37.691406 -14.644531 37.890625 -12.625 C 38.097656 -10.601562 38.335938 -8.898438 38.609375 -7.515625 C 38.890625 -6.140625 39.132812 -4.921875 39.34375 -3.859375 C 39.550781 -2.804688 39.65625 -1.726562 39.65625 -0.625 L 39.65625 0 L 29.453125 0 C 27.378906 0 25.960938 -0.492188 25.203125 -1.484375 C 24.441406 -2.472656 24.0625 -3.75 24.0625 -5.3125 C 24.0625 -6.507812 24.242188 -8.148438 24.609375 -10.234375 C 24.984375 -12.328125 25.351562 -14.59375 25.71875 -17.03125 C 26.09375 -19.46875 26.253906 -21.742188 26.203125 -23.859375 C 25.742188 -22.710938 25.085938 -21.578125 24.234375 -20.453125 C 23.390625 -19.328125 22.53125 -18.140625 21.65625 -16.890625 C 20.78125 -15.648438 20.039062 -14.304688 19.4375 -12.859375 C 18.84375 -11.410156 18.546875 -9.8125 18.546875 -8.0625 C 18.546875 -6.5 18.890625 -5.257812 19.578125 -4.34375 C 20.273438 -3.425781 20.957031 -2.769531 21.625 -2.375 C 22.289062 -1.988281 22.625 -1.796875 22.625 -1.796875 C 22.625 -1.796875 22.265625 -1.585938 21.546875 -1.171875 C 20.835938 -0.753906 19.6875 -0.34375 18.09375 0.0625 C 16.507812 0.476562 14.382812 0.6875 11.71875 0.6875 C 8.6875 0.6875 6.316406 -0.09375 4.609375 -1.65625 C 2.910156 -3.21875 2.0625 -5.171875 2.0625 -7.515625 Z M 2.0625 -7.515625 "></path></g></g></g><g fill="#004aad" fill-opacity="1"><g transform="translate(149.686137, 212.767808)"><g><path d="M 17.375 0 L 2.0625 0 C 2.0625 -3.8125 2.195312 -7.164062 2.46875 -10.0625 C 2.75 -12.96875 3.0625 -15.679688 3.40625 -18.203125 C 3.757812 -20.734375 4.070312 -23.320312 4.34375 -25.96875 C 4.625 -28.613281 4.765625 -31.566406 4.765625 -34.828125 C 4.765625 -37.910156 4.53125 -40.4375 4.0625 -42.40625 C 3.601562 -44.382812 3.15625 -45.859375 2.71875 -46.828125 C 2.28125 -47.796875 2.0625 -48.28125 2.0625 -48.28125 C 2.0625 -48.28125 2.472656 -48.28125 3.296875 -48.28125 C 4.128906 -48.28125 5.164062 -48.28125 6.40625 -48.28125 C 7.65625 -48.28125 8.890625 -48.28125 10.109375 -48.28125 C 11.328125 -48.28125 12.347656 -48.28125 13.171875 -48.28125 C 14.003906 -48.28125 14.421875 -48.28125 14.421875 -48.28125 C 15.203125 -47.675781 15.804688 -46.84375 16.234375 -45.78125 C 16.671875 -44.726562 16.984375 -43.660156 17.171875 -42.578125 C 17.359375 -41.503906 17.472656 -40.597656 17.515625 -39.859375 C 17.566406 -39.128906 17.59375 -38.765625 17.59375 -38.765625 C 17.59375 -36.367188 17.359375 -33.769531 16.890625 -30.96875 C 16.429688 -28.164062 16.15625 -24.96875 16.0625 -21.375 C 16.707031 -22.019531 17.570312 -22.523438 18.65625 -22.890625 C 19.738281 -23.265625 20.832031 -23.632812 21.9375 -24 C 23.039062 -24.363281 23.96875 -24.832031 24.71875 -25.40625 C 25.476562 -25.988281 25.859375 -26.804688 25.859375 -27.859375 C 25.859375 -29.878906 25.695312 -31.488281 25.375 -32.6875 C 25.050781 -33.882812 24.890625 -34.484375 24.890625 -34.484375 C 24.890625 -34.484375 25.328125 -34.484375 26.203125 -34.484375 C 27.078125 -34.484375 28.15625 -34.484375 29.4375 -34.484375 C 30.726562 -34.484375 32.019531 -34.484375 33.3125 -34.484375 C 34.601562 -34.484375 35.679688 -34.484375 36.546875 -34.484375 C 37.421875 -34.484375 37.859375 -34.484375 37.859375 -34.484375 C 38.410156 -33.890625 38.800781 -33.097656 39.03125 -32.109375 C 39.257812 -31.117188 39.394531 -30.234375 39.4375 -29.453125 C 39.488281 -28.671875 39.515625 -28.28125 39.515625 -28.28125 C 39.515625 -25.425781 38.570312 -23.398438 36.6875 -22.203125 C 34.800781 -21.015625 32.203125 -20.421875 28.890625 -20.421875 C 28.578125 -20.421875 28.242188 -20.421875 27.890625 -20.421875 C 27.546875 -20.421875 27.191406 -20.421875 26.828125 -20.421875 C 25.628906 -20.421875 24.421875 -20.394531 23.203125 -20.34375 C 21.984375 -20.300781 20.957031 -20.195312 20.125 -20.03125 C 19.300781 -19.875 18.890625 -19.613281 18.890625 -19.25 C 18.890625 -18.96875 19.515625 -18.828125 20.765625 -18.828125 C 21.398438 -18.785156 22.164062 -18.785156 23.0625 -18.828125 C 23.96875 -18.867188 24.925781 -18.890625 25.9375 -18.890625 C 27.59375 -18.890625 29.316406 -18.773438 31.109375 -18.546875 C 32.898438 -18.316406 34.578125 -17.832031 36.140625 -17.09375 C 37.703125 -16.363281 38.960938 -15.265625 39.921875 -13.796875 C 40.890625 -12.328125 41.375 -10.347656 41.375 -7.859375 C 41.375 -6.898438 41.375 -5.910156 41.375 -4.890625 C 41.375 -3.878906 41.453125 -3.015625 41.609375 -2.296875 C 41.773438 -1.585938 42.085938 -1.234375 42.546875 -1.234375 C 41.859375 -0.773438 41.019531 -0.40625 40.03125 -0.125 C 39.039062 0.144531 38.070312 0.335938 37.125 0.453125 C 36.1875 0.566406 35.40625 0.632812 34.78125 0.65625 C 34.164062 0.675781 33.859375 0.6875 33.859375 0.6875 C 31.335938 0.6875 29.363281 0.09375 27.9375 -1.09375 C 26.507812 -2.289062 25.796875 -3.878906 25.796875 -5.859375 C 25.796875 -7.328125 25.929688 -8.460938 26.203125 -9.265625 C 26.484375 -10.078125 26.757812 -10.816406 27.03125 -11.484375 C 27.3125 -12.148438 27.453125 -13.007812 27.453125 -14.0625 C 27.453125 -14.757812 27.003906 -15.195312 26.109375 -15.375 C 25.210938 -15.5625 24.117188 -15.664062 22.828125 -15.6875 C 21.535156 -15.707031 20.257812 -15.796875 19 -15.953125 C 17.738281 -16.117188 16.757812 -16.503906 16.0625 -17.109375 C 16.113281 -15.773438 16.1875 -14.671875 16.28125 -13.796875 C 16.375 -12.921875 16.488281 -12.113281 16.625 -11.375 C 16.757812 -10.644531 16.882812 -9.832031 17 -8.9375 C 17.113281 -8.039062 17.203125 -6.890625 17.265625 -5.484375 C 17.335938 -4.078125 17.375 -2.25 17.375 0 Z M 17.375 0 "></path></g></g></g><g fill="#004aad" fill-opacity="1"><g transform="translate(193.402244, 212.767808)"><g><path d="M 2.0625 -7.515625 C 2.0625 -9.679688 2.585938 -11.53125 3.640625 -13.0625 C 4.703125 -14.601562 6.0625 -15.925781 7.71875 -17.03125 C 9.375 -18.132812 11.164062 -19.113281 13.09375 -19.96875 C 15.03125 -20.820312 16.894531 -21.625 18.6875 -22.375 C 20.476562 -23.132812 22.003906 -23.9375 23.265625 -24.78125 C 24.535156 -25.632812 25.332031 -26.613281 25.65625 -27.71875 C 25.332031 -28.914062 24.789062 -29.867188 24.03125 -30.578125 C 23.269531 -31.296875 22.222656 -31.65625 20.890625 -31.65625 C 19.378906 -31.65625 18.332031 -31.378906 17.75 -30.828125 C 17.175781 -30.273438 16.878906 -29.582031 16.859375 -28.75 C 16.835938 -27.925781 16.914062 -27.125 17.09375 -26.34375 C 17.28125 -25.5625 17.375 -24.921875 17.375 -24.421875 C 15.539062 -23.453125 13.863281 -22.769531 12.34375 -22.375 C 10.820312 -21.988281 9.613281 -21.75 8.71875 -21.65625 C 7.820312 -21.5625 7.375 -21.515625 7.375 -21.515625 C 5.945312 -21.515625 4.703125 -21.859375 3.640625 -22.546875 C 2.585938 -23.242188 2.0625 -24.554688 2.0625 -26.484375 C 2.0625 -28.554688 3.039062 -30.40625 5 -32.03125 C 6.957031 -33.664062 10.023438 -34.484375 14.203125 -34.484375 L 23.25 -34.484375 C 26.1875 -34.484375 28.722656 -33.863281 30.859375 -32.625 C 33.003906 -31.382812 34.660156 -29.691406 35.828125 -27.546875 C 37.003906 -25.410156 37.59375 -22.960938 37.59375 -20.203125 C 37.59375 -17.171875 37.691406 -14.644531 37.890625 -12.625 C 38.097656 -10.601562 38.335938 -8.898438 38.609375 -7.515625 C 38.890625 -6.140625 39.132812 -4.921875 39.34375 -3.859375 C 39.550781 -2.804688 39.65625 -1.726562 39.65625 -0.625 L 39.65625 0 L 29.453125 0 C 27.378906 0 25.960938 -0.492188 25.203125 -1.484375 C 24.441406 -2.472656 24.0625 -3.75 24.0625 -5.3125 C 24.0625 -6.507812 24.242188 -8.148438 24.609375 -10.234375 C 24.984375 -12.328125 25.351562 -14.59375 25.71875 -17.03125 C 26.09375 -19.46875 26.253906 -21.742188 26.203125 -23.859375 C 25.742188 -22.710938 25.085938 -21.578125 24.234375 -20.453125 C 23.390625 -19.328125 22.53125 -18.140625 21.65625 -16.890625 C 20.78125 -15.648438 20.039062 -14.304688 19.4375 -12.859375 C 18.84375 -11.410156 18.546875 -9.8125 18.546875 -8.0625 C 18.546875 -6.5 18.890625 -5.257812 19.578125 -4.34375 C 20.273438 -3.425781 20.957031 -2.769531 21.625 -2.375 C 22.289062 -1.988281 22.625 -1.796875 22.625 -1.796875 C 22.625 -1.796875 22.265625 -1.585938 21.546875 -1.171875 C 20.835938 -0.753906 19.6875 -0.34375 18.09375 0.0625 C 16.507812 0.476562 14.382812 0.6875 11.71875 0.6875 C 8.6875 0.6875 6.316406 -0.09375 4.609375 -1.65625 C 2.910156 -3.21875 2.0625 -5.171875 2.0625 -7.515625 Z M 2.0625 -7.515625 "></path></g></g></g><g fill="#004aad" fill-opacity="1"><g transform="translate(234.22231, 212.767808)"><g><path d="M 17.375 0 L 2.0625 0 C 2.0625 -3.40625 2.28125 -6.472656 2.71875 -9.203125 C 3.15625 -11.941406 3.601562 -14.617188 4.0625 -17.234375 C 4.53125 -19.859375 4.765625 -22.617188 4.765625 -25.515625 C 4.765625 -27.585938 4.53125 -29.273438 4.0625 -30.578125 C 3.601562 -31.890625 3.15625 -32.867188 2.71875 -33.515625 C 2.28125 -34.160156 2.0625 -34.484375 2.0625 -34.484375 C 2.0625 -34.484375 2.472656 -34.484375 3.296875 -34.484375 C 4.128906 -34.484375 5.164062 -34.484375 6.40625 -34.484375 C 7.65625 -34.484375 8.890625 -34.484375 10.109375 -34.484375 C 11.328125 -34.484375 12.347656 -34.484375 13.171875 -34.484375 C 14.003906 -34.484375 14.421875 -34.484375 14.421875 -34.484375 C 15.054688 -34.160156 15.695312 -33.539062 16.34375 -32.625 C 17.257812 -33.175781 18.269531 -33.625 19.375 -33.96875 C 20.476562 -34.3125 21.742188 -34.484375 23.171875 -34.484375 L 29.9375 -34.484375 C 32 -34.484375 34.03125 -33.921875 36.03125 -32.796875 C 38.03125 -31.671875 39.6875 -30.023438 41 -27.859375 C 42.3125 -25.703125 42.96875 -23.0625 42.96875 -19.9375 C 42.96875 -17.820312 42.835938 -15.75 42.578125 -13.71875 C 42.328125 -11.695312 42.085938 -9.859375 41.859375 -8.203125 C 41.628906 -6.546875 41.546875 -5.222656 41.609375 -4.234375 C 41.679688 -3.253906 42.066406 -2.765625 42.765625 -2.765625 C 42.304688 -1.890625 41.566406 -1.21875 40.546875 -0.75 C 39.535156 -0.289062 38.46875 0.0351562 37.34375 0.234375 C 36.21875 0.441406 35.265625 0.566406 34.484375 0.609375 C 33.703125 0.660156 33.3125 0.6875 33.3125 0.6875 C 31.15625 0.6875 29.335938 0.207031 27.859375 -0.75 C 26.390625 -1.71875 25.65625 -3.257812 25.65625 -5.375 C 25.65625 -6.613281 25.800781 -7.726562 26.09375 -8.71875 C 26.394531 -9.707031 26.738281 -10.742188 27.125 -11.828125 C 27.519531 -12.910156 27.867188 -14.160156 28.171875 -15.578125 C 28.472656 -17.003906 28.625 -18.753906 28.625 -20.828125 C 28.625 -21.421875 28.625 -22.304688 28.625 -23.484375 C 28.625 -24.660156 28.507812 -25.867188 28.28125 -27.109375 C 28.050781 -28.347656 27.632812 -29.40625 27.03125 -30.28125 C 26.4375 -31.15625 25.539062 -31.59375 24.34375 -31.59375 C 22.738281 -31.59375 21.460938 -30.765625 20.515625 -29.109375 C 19.578125 -27.453125 18.890625 -25.160156 18.453125 -22.234375 C 18.015625 -19.316406 17.722656 -15.960938 17.578125 -12.171875 C 17.441406 -8.378906 17.375 -4.320312 17.375 0 Z M 17.375 0 "></path></g></g></g><g fill="#004aad" fill-opacity="1"><g transform="translate(278.352133, 212.767808)"><g><path d="M 2.0625 -7.515625 C 2.0625 -9.679688 2.585938 -11.53125 3.640625 -13.0625 C 4.703125 -14.601562 6.0625 -15.925781 7.71875 -17.03125 C 9.375 -18.132812 11.164062 -19.113281 13.09375 -19.96875 C 15.03125 -20.820312 16.894531 -21.625 18.6875 -22.375 C 20.476562 -23.132812 22.003906 -23.9375 23.265625 -24.78125 C 24.535156 -25.632812 25.332031 -26.613281 25.65625 -27.71875 C 25.332031 -28.914062 24.789062 -29.867188 24.03125 -30.578125 C 23.269531 -31.296875 22.222656 -31.65625 20.890625 -31.65625 C 19.378906 -31.65625 18.332031 -31.378906 17.75 -30.828125 C 17.175781 -30.273438 16.878906 -29.582031 16.859375 -28.75 C 16.835938 -27.925781 16.914062 -27.125 17.09375 -26.34375 C 17.28125 -25.5625 17.375 -24.921875 17.375 -24.421875 C 15.539062 -23.453125 13.863281 -22.769531 12.34375 -22.375 C 10.820312 -21.988281 9.613281 -21.75 8.71875 -21.65625 C 7.820312 -21.5625 7.375 -21.515625 7.375 -21.515625 C 5.945312 -21.515625 4.703125 -21.859375 3.640625 -22.546875 C 2.585938 -23.242188 2.0625 -24.554688 2.0625 -26.484375 C 2.0625 -28.554688 3.039062 -30.40625 5 -32.03125 C 6.957031 -33.664062 10.023438 -34.484375 14.203125 -34.484375 L 23.25 -34.484375 C 26.1875 -34.484375 28.722656 -33.863281 30.859375 -32.625 C 33.003906 -31.382812 34.660156 -29.691406 35.828125 -27.546875 C 37.003906 -25.410156 37.59375 -22.960938 37.59375 -20.203125 C 37.59375 -17.171875 37.691406 -14.644531 37.890625 -12.625 C 38.097656 -10.601562 38.335938 -8.898438 38.609375 -7.515625 C 38.890625 -6.140625 39.132812 -4.921875 39.34375 -3.859375 C 39.550781 -2.804688 39.65625 -1.726562 39.65625 -0.625 L 39.65625 0 L 29.453125 0 C 27.378906 0 25.960938 -0.492188 25.203125 -1.484375 C 24.441406 -2.472656 24.0625 -3.75 24.0625 -5.3125 C 24.0625 -6.507812 24.242188 -8.148438 24.609375 -10.234375 C 24.984375 -12.328125 25.351562 -14.59375 25.71875 -17.03125 C 26.09375 -19.46875 26.253906 -21.742188 26.203125 -23.859375 C 25.742188 -22.710938 25.085938 -21.578125 24.234375 -20.453125 C 23.390625 -19.328125 22.53125 -18.140625 21.65625 -16.890625 C 20.78125 -15.648438 20.039062 -14.304688 19.4375 -12.859375 C 18.84375 -11.410156 18.546875 -9.8125 18.546875 -8.0625 C 18.546875 -6.5 18.890625 -5.257812 19.578125 -4.34375 C 20.273438 -3.425781 20.957031 -2.769531 21.625 -2.375 C 22.289062 -1.988281 22.625 -1.796875 22.625 -1.796875 C 22.625 -1.796875 22.265625 -1.585938 21.546875 -1.171875 C 20.835938 -0.753906 19.6875 -0.34375 18.09375 0.0625 C 16.507812 0.476562 14.382812 0.6875 11.71875 0.6875 C 8.6875 0.6875 6.316406 -0.09375 4.609375 -1.65625 C 2.910156 -3.21875 2.0625 -5.171875 2.0625 -7.515625 Z M 2.0625 -7.515625 "></path></g></g></g><g fill="#004aad" fill-opacity="0.4"><g transform="translate(59.843589, 215.815827)"><g><path d="M 19.71875 0 L 2.0625 0 L 2.0625 -2.203125 C 2.0625 -4.828125 2.546875 -7.035156 3.515625 -8.828125 C 4.484375 -10.617188 5.75 -12.097656 7.3125 -13.265625 C 8.875 -14.441406 10.597656 -15.382812 12.484375 -16.09375 C 14.367188 -16.8125 16.253906 -17.363281 18.140625 -17.75 C 20.023438 -18.144531 21.75 -18.457031 23.3125 -18.6875 C 24.875 -18.914062 26.132812 -19.15625 27.09375 -19.40625 C 28.0625 -19.664062 28.546875 -20.023438 28.546875 -20.484375 C 28.546875 -20.992188 28.210938 -21.316406 27.546875 -21.453125 C 26.878906 -21.585938 26.019531 -21.65625 24.96875 -21.65625 C 24.457031 -21.65625 23.90625 -21.644531 23.3125 -21.625 C 22.71875 -21.601562 22.097656 -21.59375 21.453125 -21.59375 C 20.023438 -21.59375 18.550781 -21.691406 17.03125 -21.890625 C 15.519531 -22.097656 14.117188 -22.507812 12.828125 -23.125 C 11.535156 -23.75 10.5 -24.71875 9.71875 -26.03125 C 8.9375 -27.34375 8.546875 -29.125 8.546875 -31.375 C 8.546875 -33.8125 9.144531 -36.050781 10.34375 -38.09375 C 11.539062 -40.144531 13.066406 -41.925781 14.921875 -43.4375 C 16.785156 -44.957031 18.738281 -46.144531 20.78125 -47 C 22.832031 -47.851562 24.6875 -48.28125 26.34375 -48.28125 L 27.59375 -48.28125 C 30.8125 -48.28125 33.59375 -47.414062 35.9375 -45.6875 C 38.28125 -43.96875 40.253906 -41.660156 41.859375 -38.765625 C 43.472656 -35.867188 44.785156 -32.660156 45.796875 -29.140625 C 46.804688 -25.617188 47.578125 -22.039062 48.109375 -18.40625 C 48.640625 -14.78125 49.003906 -11.367188 49.203125 -8.171875 C 49.410156 -4.972656 49.515625 -2.25 49.515625 0 L 33.3125 0 C 33.3125 -4.738281 33.265625 -9.335938 33.171875 -13.796875 C 33.078125 -18.253906 32.914062 -22.398438 32.6875 -26.234375 C 32.457031 -30.078125 32.097656 -33.4375 31.609375 -36.3125 C 31.128906 -39.1875 30.5 -41.4375 29.71875 -43.0625 C 28.9375 -44.695312 27.972656 -45.515625 26.828125 -45.515625 C 26.234375 -45.515625 25.644531 -45.132812 25.0625 -44.375 C 24.488281 -43.625 23.972656 -42.648438 23.515625 -41.453125 C 23.054688 -40.253906 22.6875 -39.035156 22.40625 -37.796875 C 22.132812 -36.554688 22 -35.453125 22 -34.484375 C 22 -32.828125 22.304688 -31.457031 22.921875 -30.375 C 23.546875 -29.300781 24.328125 -28.375 25.265625 -27.59375 C 26.210938 -26.8125 27.144531 -26.085938 28.0625 -25.421875 C 28.988281 -24.753906 29.757812 -24.039062 30.375 -23.28125 C 31 -22.519531 31.3125 -21.609375 31.3125 -20.546875 C 31.3125 -19.171875 30.921875 -18.09375 30.140625 -17.3125 C 29.359375 -16.53125 28.390625 -15.875 27.234375 -15.34375 C 26.085938 -14.8125 24.9375 -14.210938 23.78125 -13.546875 C 22.632812 -12.878906 21.671875 -11.957031 20.890625 -10.78125 C 20.109375 -9.613281 19.71875 -8.019531 19.71875 -6 Z M 19.71875 0 "></path></g></g></g><g fill="#004aad" fill-opacity="0.4"><g transform="translate(110.523964, 215.815827)"><g><path d="M 17.375 0 L 2.0625 0 C 2.0625 -3.40625 2.28125 -6.472656 2.71875 -9.203125 C 3.15625 -11.941406 3.601562 -14.617188 4.0625 -17.234375 C 4.53125 -19.859375 4.765625 -22.617188 4.765625 -25.515625 C 4.765625 -27.585938 4.53125 -29.273438 4.0625 -30.578125 C 3.601562 -31.890625 3.15625 -32.867188 2.71875 -33.515625 C 2.28125 -34.160156 2.0625 -34.484375 2.0625 -34.484375 C 2.0625 -34.484375 2.472656 -34.484375 3.296875 -34.484375 C 4.128906 -34.484375 5.164062 -34.484375 6.40625 -34.484375 C 7.65625 -34.484375 8.890625 -34.484375 10.109375 -34.484375 C 11.328125 -34.484375 12.347656 -34.484375 13.171875 -34.484375 C 14.003906 -34.484375 14.421875 -34.484375 14.421875 -34.484375 C 15.054688 -34.160156 15.695312 -33.539062 16.34375 -32.625 C 17.257812 -33.175781 18.269531 -33.625 19.375 -33.96875 C 20.476562 -34.3125 21.742188 -34.484375 23.171875 -34.484375 L 26.546875 -34.484375 C 28.203125 -34.484375 29.832031 -34.390625 31.4375 -34.203125 C 33.050781 -34.023438 34.515625 -33.671875 35.828125 -33.140625 C 37.140625 -32.609375 38.1875 -31.828125 38.96875 -30.796875 C 39.75 -29.765625 40.140625 -28.375 40.140625 -26.625 C 40.140625 -24.550781 39.703125 -22.914062 38.828125 -21.71875 C 37.953125 -20.53125 36.859375 -19.691406 35.546875 -19.203125 C 34.242188 -18.722656 32.878906 -18.484375 31.453125 -18.484375 C 29.566406 -18.484375 28.046875 -18.6875 26.890625 -19.09375 C 25.742188 -19.507812 24.867188 -19.992188 24.265625 -20.546875 C 23.671875 -21.097656 23.269531 -21.582031 23.0625 -22 C 22.863281 -22.414062 22.765625 -22.625 22.765625 -22.625 C 22.765625 -22.625 23.097656 -22.769531 23.765625 -23.0625 C 24.429688 -23.363281 25.097656 -23.835938 25.765625 -24.484375 C 26.429688 -25.128906 26.765625 -26.003906 26.765625 -27.109375 C 26.765625 -28.578125 26.519531 -29.691406 26.03125 -30.453125 C 25.550781 -31.210938 24.988281 -31.59375 24.34375 -31.59375 C 22.738281 -31.59375 21.460938 -30.765625 20.515625 -29.109375 C 19.578125 -27.453125 18.890625 -25.160156 18.453125 -22.234375 C 18.015625 -19.316406 17.722656 -15.960938 17.578125 -12.171875 C 17.441406 -8.378906 17.375 -4.320312 17.375 0 Z M 17.375 0 "></path></g></g></g><g fill="#004aad" fill-opacity="1"><g transform="translate(56.795567, 212.767808)"><g><path d="M 19.71875 0 L 2.0625 0 L 2.0625 -2.203125 C 2.0625 -4.828125 2.546875 -7.035156 3.515625 -8.828125 C 4.484375 -10.617188 5.75 -12.097656 7.3125 -13.265625 C 8.875 -14.441406 10.597656 -15.382812 12.484375 -16.09375 C 14.367188 -16.8125 16.253906 -17.363281 18.140625 -17.75 C 20.023438 -18.144531 21.75 -18.457031 23.3125 -18.6875 C 24.875 -18.914062 26.132812 -19.15625 27.09375 -19.40625 C 28.0625 -19.664062 28.546875 -20.023438 28.546875 -20.484375 C 28.546875 -20.992188 28.210938 -21.316406 27.546875 -21.453125 C 26.878906 -21.585938 26.019531 -21.65625 24.96875 -21.65625 C 24.457031 -21.65625 23.90625 -21.644531 23.3125 -21.625 C 22.71875 -21.601562 22.097656 -21.59375 21.453125 -21.59375 C 20.023438 -21.59375 18.550781 -21.691406 17.03125 -21.890625 C 15.519531 -22.097656 14.117188 -22.507812 12.828125 -23.125 C 11.535156 -23.75 10.5 -24.71875 9.71875 -26.03125 C 8.9375 -27.34375 8.546875 -29.125 8.546875 -31.375 C 8.546875 -33.8125 9.144531 -36.050781 10.34375 -38.09375 C 11.539062 -40.144531 13.066406 -41.925781 14.921875 -43.4375 C 16.785156 -44.957031 18.738281 -46.144531 20.78125 -47 C 22.832031 -47.851562 24.6875 -48.28125 26.34375 -48.28125 L 27.59375 -48.28125 C 30.8125 -48.28125 33.59375 -47.414062 35.9375 -45.6875 C 38.28125 -43.96875 40.253906 -41.660156 41.859375 -38.765625 C 43.472656 -35.867188 44.785156 -32.660156 45.796875 -29.140625 C 46.804688 -25.617188 47.578125 -22.039062 48.109375 -18.40625 C 48.640625 -14.78125 49.003906 -11.367188 49.203125 -8.171875 C 49.410156 -4.972656 49.515625 -2.25 49.515625 0 L 33.3125 0 C 33.3125 -4.738281 33.265625 -9.335938 33.171875 -13.796875 C 33.078125 -18.253906 32.914062 -22.398438 32.6875 -26.234375 C 32.457031 -30.078125 32.097656 -33.4375 31.609375 -36.3125 C 31.128906 -39.1875 30.5 -41.4375 29.71875 -43.0625 C 28.9375 -44.695312 27.972656 -45.515625 26.828125 -45.515625 C 26.234375 -45.515625 25.644531 -45.132812 25.0625 -44.375 C 24.488281 -43.625 23.972656 -42.648438 23.515625 -41.453125 C 23.054688 -40.253906 22.6875 -39.035156 22.40625 -37.796875 C 22.132812 -36.554688 22 -35.453125 22 -34.484375 C 22 -32.828125 22.304688 -31.457031 22.921875 -30.375 C 23.546875 -29.300781 24.328125 -28.375 25.265625 -27.59375 C 26.210938 -26.8125 27.144531 -26.085938 28.0625 -25.421875 C 28.988281 -24.753906 29.757812 -24.039062 30.375 -23.28125 C 31 -22.519531 31.3125 -21.609375 31.3125 -20.546875 C 31.3125 -19.171875 30.921875 -18.09375 30.140625 -17.3125 C 29.359375 -16.53125 28.390625 -15.875 27.234375 -15.34375 C 26.085938 -14.8125 24.9375 -14.210938 23.78125 -13.546875 C 22.632812 -12.878906 21.671875 -11.957031 20.890625 -10.78125 C 20.109375 -9.613281 19.71875 -8.019531 19.71875 -6 Z M 19.71875 0 "></path></g></g></g><g fill="#004aad" fill-opacity="1"><g transform="translate(107.475942, 212.767808)"><g><path d="M 17.375 0 L 2.0625 0 C 2.0625 -3.40625 2.28125 -6.472656 2.71875 -9.203125 C 3.15625 -11.941406 3.601562 -14.617188 4.0625 -17.234375 C 4.53125 -19.859375 4.765625 -22.617188 4.765625 -25.515625 C 4.765625 -27.585938 4.53125 -29.273438 4.0625 -30.578125 C 3.601562 -31.890625 3.15625 -32.867188 2.71875 -33.515625 C 2.28125 -34.160156 2.0625 -34.484375 2.0625 -34.484375 C 2.0625 -34.484375 2.472656 -34.484375 3.296875 -34.484375 C 4.128906 -34.484375 5.164062 -34.484375 6.40625 -34.484375 C 7.65625 -34.484375 8.890625 -34.484375 10.109375 -34.484375 C 11.328125 -34.484375 12.347656 -34.484375 13.171875 -34.484375 C 14.003906 -34.484375 14.421875 -34.484375 14.421875 -34.484375 C 15.054688 -34.160156 15.695312 -33.539062 16.34375 -32.625 C 17.257812 -33.175781 18.269531 -33.625 19.375 -33.96875 C 20.476562 -34.3125 21.742188 -34.484375 23.171875 -34.484375 L 26.546875 -34.484375 C 28.203125 -34.484375 29.832031 -34.390625 31.4375 -34.203125 C 33.050781 -34.023438 34.515625 -33.671875 35.828125 -33.140625 C 37.140625 -32.609375 38.1875 -31.828125 38.96875 -30.796875 C 39.75 -29.765625 40.140625 -28.375 40.140625 -26.625 C 40.140625 -24.550781 39.703125 -22.914062 38.828125 -21.71875 C 37.953125 -20.53125 36.859375 -19.691406 35.546875 -19.203125 C 34.242188 -18.722656 32.878906 -18.484375 31.453125 -18.484375 C 29.566406 -18.484375 28.046875 -18.6875 26.890625 -19.09375 C 25.742188 -19.507812 24.867188 -19.992188 24.265625 -20.546875 C 23.671875 -21.097656 23.269531 -21.582031 23.0625 -22 C 22.863281 -22.414062 22.765625 -22.625 22.765625 -22.625 C 22.765625 -22.625 23.097656 -22.769531 23.765625 -23.0625 C 24.429688 -23.363281 25.097656 -23.835938 25.765625 -24.484375 C 26.429688 -25.128906 26.765625 -26.003906 26.765625 -27.109375 C 26.765625 -28.578125 26.519531 -29.691406 26.03125 -30.453125 C 25.550781 -31.210938 24.988281 -31.59375 24.34375 -31.59375 C 22.738281 -31.59375 21.460938 -30.765625 20.515625 -29.109375 C 19.578125 -27.453125 18.890625 -25.160156 18.453125 -22.234375 C 18.015625 -19.316406 17.722656 -15.960938 17.578125 -12.171875 C 17.441406 -8.378906 17.375 -4.320312 17.375 0 Z M 17.375 0 "></path></g></g></g><g transform="matrix(1, 0, 0, 1, 212, 210)"><g clip-path="url(#d0cde65261)"><g fill="#004aad" fill-opacity="1"><g transform="translate(0.851896, 13.931311)"><g><path d="M 8.3125 -9.03125 C 8.84375 -9.03125 9.21875 -9.015625 9.4375 -8.984375 C 9.707031 -8.941406 9.890625 -8.878906 9.984375 -8.796875 C 10.160156 -8.679688 10.25 -8.425781 10.25 -8.03125 C 10.25 -8 10.25 -7.960938 10.25 -7.921875 C 10.25 -7.890625 10.242188 -7.84375 10.234375 -7.78125 C 10.234375 -7.664062 10.222656 -7.5 10.203125 -7.28125 C 10.179688 -7.0625 10.144531 -6.789062 10.09375 -6.46875 L 9.796875 -4.421875 L 9.546875 -2.5625 C 9.492188 -2.125 9.441406 -1.769531 9.390625 -1.5 C 9.335938 -1.226562 9.285156 -1.023438 9.234375 -0.890625 C 9.160156 -0.640625 9.039062 -0.445312 8.875 -0.3125 C 8.738281 -0.207031 8.535156 -0.128906 8.265625 -0.078125 C 8.148438 -0.0546875 7.945312 -0.0351562 7.65625 -0.015625 C 7.363281 -0.00390625 6.984375 0 6.515625 0 L 2.5625 0 C 2.125 0 1.765625 -0.00390625 1.484375 -0.015625 C 1.210938 -0.0351562 1.007812 -0.0546875 0.875 -0.078125 C 0.613281 -0.128906 0.429688 -0.21875 0.328125 -0.34375 C 0.234375 -0.476562 0.1875 -0.691406 0.1875 -0.984375 L 0.1875 -1.09375 C 0.207031 -1.34375 0.257812 -1.832031 0.34375 -2.5625 L 0.453125 -3.25 C 0.503906 -3.570312 0.546875 -3.84375 0.578125 -4.0625 C 0.617188 -4.28125 0.644531 -4.445312 0.65625 -4.5625 C 0.738281 -4.976562 0.859375 -5.265625 1.015625 -5.421875 C 1.191406 -5.597656 1.429688 -5.703125 1.734375 -5.734375 C 1.984375 -5.773438 2.453125 -5.796875 3.140625 -5.796875 L 6.9375 -5.796875 C 7.007812 -5.796875 7.070312 -5.796875 7.125 -5.796875 C 7.1875 -5.804688 7.222656 -5.8125 7.234375 -5.8125 C 7.296875 -5.820312 7.347656 -5.851562 7.390625 -5.90625 C 7.429688 -5.9375 7.453125 -5.988281 7.453125 -6.0625 C 7.472656 -6.132812 7.488281 -6.269531 7.5 -6.46875 L 3.5 -6.46875 C 3.164062 -6.46875 2.882812 -6.46875 2.65625 -6.46875 C 2.4375 -6.476562 2.273438 -6.488281 2.171875 -6.5 C 1.847656 -6.550781 1.625 -6.660156 1.5 -6.828125 C 1.382812 -7.003906 1.3125 -7.285156 1.28125 -7.671875 C 1.28125 -7.773438 1.273438 -7.914062 1.265625 -8.09375 C 1.253906 -8.28125 1.25 -8.492188 1.25 -8.734375 L 1.25 -9.03125 Z M 3.46875 -3.25 C 3.300781 -3.25 3.207031 -3.238281 3.1875 -3.21875 C 3.15625 -3.21875 3.113281 -3.195312 3.0625 -3.15625 C 3.039062 -3.125 3.015625 -3.03125 2.984375 -2.875 C 2.984375 -2.8125 2.96875 -2.707031 2.9375 -2.5625 L 6.5 -2.5625 C 6.570312 -2.5625 6.632812 -2.566406 6.6875 -2.578125 C 6.75 -2.585938 6.785156 -2.59375 6.796875 -2.59375 C 6.867188 -2.601562 6.910156 -2.625 6.921875 -2.65625 C 6.941406 -2.6875 6.96875 -2.75 7 -2.84375 C 7.019531 -2.914062 7.035156 -3.050781 7.046875 -3.25 Z M 3.46875 -3.25 "></path></g></g></g><g fill="#004aad" fill-opacity="1"><g transform="translate(10.739363, 13.931311)"><g><path d="M 2.5 1.140625 C 2.382812 1.921875 2.289062 2.441406 2.21875 2.703125 C 2.144531 3.015625 2.023438 3.25 1.859375 3.40625 C 1.710938 3.550781 1.457031 3.644531 1.09375 3.6875 C 0.863281 3.71875 0.347656 3.734375 -0.453125 3.734375 L 0.875 -5.78125 L 0.96875 -6.453125 C 1.03125 -6.835938 1.078125 -7.15625 1.109375 -7.40625 C 1.148438 -7.664062 1.179688 -7.859375 1.203125 -7.984375 C 1.304688 -8.367188 1.453125 -8.625 1.640625 -8.75 C 1.785156 -8.851562 1.992188 -8.925781 2.265625 -8.96875 C 2.535156 -9 3.070312 -9.015625 3.875 -9.015625 L 7.96875 -9.015625 C 8.382812 -9.015625 8.726562 -9.007812 9 -9 C 9.28125 -8.988281 9.476562 -8.972656 9.59375 -8.953125 C 9.851562 -8.910156 10.035156 -8.828125 10.140625 -8.703125 C 10.265625 -8.578125 10.328125 -8.351562 10.328125 -8.03125 C 10.328125 -7.988281 10.328125 -7.929688 10.328125 -7.859375 C 10.328125 -7.796875 10.320312 -7.722656 10.3125 -7.640625 C 10.289062 -7.421875 10.234375 -7.023438 10.140625 -6.453125 L 9.59375 -2.546875 C 9.550781 -2.171875 9.507812 -1.859375 9.46875 -1.609375 C 9.4375 -1.367188 9.398438 -1.191406 9.359375 -1.078125 C 9.285156 -0.753906 9.171875 -0.515625 9.015625 -0.359375 C 8.859375 -0.203125 8.632812 -0.0976562 8.34375 -0.046875 C 8.09375 -0.015625 7.613281 0 6.90625 0 L 2.65625 0 Z M 6.390625 -2.546875 C 6.492188 -2.546875 6.570312 -2.546875 6.625 -2.546875 C 6.6875 -2.554688 6.738281 -2.5625 6.78125 -2.5625 C 6.875 -2.601562 6.929688 -2.632812 6.953125 -2.65625 C 7.003906 -2.71875 7.035156 -2.785156 7.046875 -2.859375 C 7.078125 -2.941406 7.097656 -3.0625 7.109375 -3.21875 L 7.5625 -6.453125 L 4.296875 -6.453125 C 4.179688 -6.453125 4.082031 -6.453125 4 -6.453125 C 3.914062 -6.453125 3.859375 -6.445312 3.828125 -6.4375 C 3.765625 -6.4375 3.707031 -6.410156 3.65625 -6.359375 C 3.625 -6.316406 3.585938 -6.242188 3.546875 -6.140625 C 3.535156 -6.117188 3.523438 -6.078125 3.515625 -6.015625 C 3.503906 -5.953125 3.488281 -5.875 3.46875 -5.78125 L 3.03125 -2.5625 L 3.03125 -2.546875 Z M 6.390625 -2.546875 "></path></g></g></g><g fill="#004aad" fill-opacity="1"><g transform="translate(20.699667, 13.931311)"><g><path d="M 2.5 1.140625 C 2.382812 1.921875 2.289062 2.441406 2.21875 2.703125 C 2.144531 3.015625 2.023438 3.25 1.859375 3.40625 C 1.710938 3.550781 1.457031 3.644531 1.09375 3.6875 C 0.863281 3.71875 0.347656 3.734375 -0.453125 3.734375 L 0.875 -5.78125 L 0.96875 -6.453125 C 1.03125 -6.835938 1.078125 -7.15625 1.109375 -7.40625 C 1.148438 -7.664062 1.179688 -7.859375 1.203125 -7.984375 C 1.304688 -8.367188 1.453125 -8.625 1.640625 -8.75 C 1.785156 -8.851562 1.992188 -8.925781 2.265625 -8.96875 C 2.535156 -9 3.070312 -9.015625 3.875 -9.015625 L 7.96875 -9.015625 C 8.382812 -9.015625 8.726562 -9.007812 9 -9 C 9.28125 -8.988281 9.476562 -8.972656 9.59375 -8.953125 C 9.851562 -8.910156 10.035156 -8.828125 10.140625 -8.703125 C 10.265625 -8.578125 10.328125 -8.351562 10.328125 -8.03125 C 10.328125 -7.988281 10.328125 -7.929688 10.328125 -7.859375 C 10.328125 -7.796875 10.320312 -7.722656 10.3125 -7.640625 C 10.289062 -7.421875 10.234375 -7.023438 10.140625 -6.453125 L 9.59375 -2.546875 C 9.550781 -2.171875 9.507812 -1.859375 9.46875 -1.609375 C 9.4375 -1.367188 9.398438 -1.191406 9.359375 -1.078125 C 9.285156 -0.753906 9.171875 -0.515625 9.015625 -0.359375 C 8.859375 -0.203125 8.632812 -0.0976562 8.34375 -0.046875 C 8.09375 -0.015625 7.613281 0 6.90625 0 L 2.65625 0 Z M 6.390625 -2.546875 C 6.492188 -2.546875 6.570312 -2.546875 6.625 -2.546875 C 6.6875 -2.554688 6.738281 -2.5625 6.78125 -2.5625 C 6.875 -2.601562 6.929688 -2.632812 6.953125 -2.65625 C 7.003906 -2.71875 7.035156 -2.785156 7.046875 -2.859375 C 7.078125 -2.941406 7.097656 -3.0625 7.109375 -3.21875 L 7.5625 -6.453125 L 4.296875 -6.453125 C 4.179688 -6.453125 4.082031 -6.453125 4 -6.453125 C 3.914062 -6.453125 3.859375 -6.445312 3.828125 -6.4375 C 3.765625 -6.4375 3.707031 -6.410156 3.65625 -6.359375 C 3.625 -6.316406 3.585938 -6.242188 3.546875 -6.140625 C 3.535156 -6.117188 3.523438 -6.078125 3.515625 -6.015625 C 3.503906 -5.953125 3.488281 -5.875 3.46875 -5.78125 L 3.03125 -2.5625 L 3.03125 -2.546875 Z M 6.390625 -2.546875 "></path></g></g></g><g fill="#004aad" fill-opacity="1"><g transform="translate(30.659971, 13.931311)"><g><path d="M 0.890625 -6.484375 C 0.960938 -7.035156 1.019531 -7.394531 1.0625 -7.5625 C 1.164062 -8.125 1.3125 -8.492188 1.5 -8.671875 C 1.664062 -8.859375 1.925781 -8.96875 2.28125 -9 C 2.414062 -9.019531 2.601562 -9.03125 2.84375 -9.03125 C 3.082031 -9.03125 3.382812 -9.03125 3.75 -9.03125 L 7.9375 -9.03125 C 8.394531 -9.03125 8.765625 -9.023438 9.046875 -9.015625 C 9.328125 -9.003906 9.53125 -8.984375 9.65625 -8.953125 C 9.875 -8.910156 10.03125 -8.8125 10.125 -8.65625 C 10.207031 -8.53125 10.25 -8.328125 10.25 -8.046875 L 10.25 -7.875 C 10.25 -7.644531 10.195312 -7.179688 10.09375 -6.484375 L 9.546875 -2.59375 C 9.460938 -1.945312 9.390625 -1.5 9.328125 -1.25 C 9.253906 -0.914062 9.164062 -0.671875 9.0625 -0.515625 C 8.925781 -0.304688 8.679688 -0.164062 8.328125 -0.09375 C 8.203125 -0.0820312 8.003906 -0.0664062 7.734375 -0.046875 C 7.472656 -0.0234375 7.132812 -0.015625 6.71875 -0.015625 L 2.4375 -0.015625 C 2.050781 -0.015625 1.726562 -0.0234375 1.46875 -0.046875 C 1.21875 -0.0664062 1.023438 -0.0820312 0.890625 -0.09375 C 0.617188 -0.132812 0.425781 -0.238281 0.3125 -0.40625 C 0.269531 -0.476562 0.238281 -0.5625 0.21875 -0.65625 C 0.195312 -0.757812 0.1875 -0.875 0.1875 -1 L 0.1875 -1.21875 C 0.207031 -1.457031 0.257812 -1.914062 0.34375 -2.59375 C 0.414062 -2.988281 0.597656 -4.285156 0.890625 -6.484375 Z M 4.375 -6.484375 C 4.226562 -6.484375 4.101562 -6.484375 4 -6.484375 C 3.90625 -6.484375 3.835938 -6.476562 3.796875 -6.46875 C 3.671875 -6.445312 3.582031 -6.410156 3.53125 -6.359375 C 3.5 -6.316406 3.460938 -6.210938 3.421875 -6.046875 C 3.421875 -6.035156 3.414062 -6.007812 3.40625 -5.96875 C 3.40625 -5.925781 3.398438 -5.875 3.390625 -5.8125 L 2.9375 -2.59375 L 6.71875 -2.59375 C 6.800781 -2.613281 6.859375 -2.632812 6.890625 -2.65625 C 6.929688 -2.707031 6.953125 -2.765625 6.953125 -2.828125 C 6.984375 -2.859375 7.003906 -2.90625 7.015625 -2.96875 C 7.023438 -3.039062 7.035156 -3.132812 7.046875 -3.25 L 7.5 -6.484375 Z M 4.375 -6.484375 "></path></g></g></g><g fill="#004aad" fill-opacity="1"><g transform="translate(40.547438, 13.931311)"><g><path d="M 4.5625 -12.75 L 4.140625 -9.703125 L 1.546875 -9.703125 L 1.609375 -10.203125 C 1.660156 -10.554688 1.703125 -10.847656 1.734375 -11.078125 C 1.773438 -11.304688 1.8125 -11.476562 1.84375 -11.59375 C 1.925781 -11.976562 2.046875 -12.25 2.203125 -12.40625 C 2.359375 -12.5625 2.582031 -12.660156 2.875 -12.703125 C 3.132812 -12.734375 3.695312 -12.75 4.5625 -12.75 Z M 1.453125 -9.03125 L 4.046875 -9.03125 L 3.515625 -5.359375 L 3.140625 -2.546875 C 3.035156 -1.921875 2.960938 -1.488281 2.921875 -1.25 C 2.867188 -0.945312 2.78125 -0.707031 2.65625 -0.53125 C 2.507812 -0.3125 2.269531 -0.164062 1.9375 -0.09375 C 1.8125 -0.0625 1.601562 -0.0351562 1.3125 -0.015625 C 1.019531 -0.00390625 0.644531 0 0.1875 0 L 0.84375 -4.625 Z M 1.453125 -9.03125 "></path></g></g></g><g fill="#004aad" fill-opacity="1"><g transform="translate(44.207244, 13.931311)"><g><path d="M 1.09375 -6.453125 C 1.15625 -6.878906 1.207031 -7.222656 1.25 -7.484375 C 1.289062 -7.742188 1.320312 -7.929688 1.34375 -8.046875 C 1.457031 -8.398438 1.601562 -8.640625 1.78125 -8.765625 C 1.925781 -8.867188 2.144531 -8.941406 2.4375 -8.984375 C 2.550781 -9.003906 2.695312 -9.015625 2.875 -9.015625 C 3.050781 -9.015625 3.253906 -9.015625 3.484375 -9.015625 L 8.59375 -9.015625 C 8.84375 -9.015625 9.050781 -9.015625 9.21875 -9.015625 C 9.394531 -9.015625 9.539062 -9.003906 9.65625 -8.984375 C 9.90625 -8.941406 10.082031 -8.875 10.1875 -8.78125 C 10.332031 -8.675781 10.414062 -8.460938 10.4375 -8.140625 L 10.4375 -8.015625 C 10.4375 -7.773438 10.382812 -7.253906 10.28125 -6.453125 L 10.1875 -5.796875 L 9.8125 -3.21875 L 9.734375 -2.546875 C 9.679688 -2.179688 9.632812 -1.878906 9.59375 -1.640625 C 9.5625 -1.398438 9.523438 -1.21875 9.484375 -1.09375 C 9.453125 -0.945312 9.410156 -0.816406 9.359375 -0.703125 C 9.316406 -0.585938 9.257812 -0.492188 9.1875 -0.421875 C 9.039062 -0.265625 8.816406 -0.148438 8.515625 -0.078125 C 8.390625 -0.0546875 8.179688 -0.0351562 7.890625 -0.015625 C 7.597656 -0.00390625 7.226562 0 6.78125 0 L 7.140625 -2.546875 L 7.234375 -3.21875 L 7.59375 -5.796875 L 7.6875 -6.453125 L 4.359375 -6.453125 C 4.304688 -6.460938 4.257812 -6.46875 4.21875 -6.46875 C 4.175781 -6.46875 4.132812 -6.46875 4.09375 -6.46875 C 4.019531 -6.46875 3.972656 -6.460938 3.953125 -6.453125 C 3.890625 -6.453125 3.828125 -6.429688 3.765625 -6.390625 C 3.722656 -6.347656 3.679688 -6.273438 3.640625 -6.171875 C 3.640625 -6.128906 3.625 -6.003906 3.59375 -5.796875 L 3.21875 -3.21875 L 3.140625 -2.546875 C 3.085938 -2.148438 3.03125 -1.820312 2.96875 -1.5625 C 2.914062 -1.300781 2.875 -1.101562 2.84375 -0.96875 C 2.769531 -0.675781 2.632812 -0.453125 2.4375 -0.296875 C 2.28125 -0.179688 2.039062 -0.09375 1.71875 -0.03125 C 1.59375 -0.0195312 1.398438 -0.0078125 1.140625 0 C 0.890625 0 0.570312 0 0.1875 0 L 0.546875 -2.546875 L 0.640625 -3.21875 L 1 -5.796875 Z M 1.09375 -6.453125 "></path></g></g></g><g fill="#004aad" fill-opacity="1"><g transform="translate(54.276804, 13.931311)"><g><path d="M 4.1875 -12.75 C 4.894531 -12.75 5.378906 -12.734375 5.640625 -12.703125 C 6.140625 -12.660156 6.445312 -12.515625 6.5625 -12.265625 C 6.601562 -12.160156 6.625 -12 6.625 -11.78125 C 6.625 -11.738281 6.625 -11.679688 6.625 -11.609375 C 6.625 -11.546875 6.613281 -11.472656 6.59375 -11.390625 C 6.59375 -11.234375 6.539062 -10.832031 6.4375 -10.1875 L 6.265625 -9.015625 L 10.28125 -9.015625 C 10.164062 -8.203125 10.070312 -7.660156 10 -7.390625 C 9.914062 -7.097656 9.789062 -6.878906 9.625 -6.734375 C 9.445312 -6.617188 9.175781 -6.535156 8.8125 -6.484375 C 8.695312 -6.472656 8.515625 -6.460938 8.265625 -6.453125 C 8.023438 -6.453125 7.710938 -6.453125 7.328125 -6.453125 L 5.90625 -6.453125 L 5.8125 -5.796875 L 5.453125 -3.21875 L 5.359375 -2.546875 L 9.359375 -2.546875 C 9.316406 -2.171875 9.273438 -1.859375 9.234375 -1.609375 C 9.203125 -1.367188 9.164062 -1.1875 9.125 -1.0625 C 9.03125 -0.71875 8.910156 -0.472656 8.765625 -0.328125 C 8.609375 -0.191406 8.34375 -0.09375 7.96875 -0.03125 C 7.84375 -0.0195312 7.660156 -0.0078125 7.421875 0 C 7.179688 0 6.890625 0 6.546875 0 L 4.875 0 C 4.5625 0 4.296875 0 4.078125 0 C 3.859375 -0.0078125 3.679688 -0.015625 3.546875 -0.015625 C 3.085938 -0.0664062 2.789062 -0.1875 2.65625 -0.375 C 2.582031 -0.507812 2.546875 -0.6875 2.546875 -0.90625 L 2.546875 -1.1875 C 2.585938 -1.425781 2.660156 -1.878906 2.765625 -2.546875 L 2.859375 -3.21875 L 3.21875 -5.796875 L 3.3125 -6.453125 L 0.734375 -6.453125 C 0.773438 -6.773438 0.8125 -7.046875 0.84375 -7.265625 C 0.882812 -7.484375 0.910156 -7.648438 0.921875 -7.765625 C 1.035156 -8.222656 1.171875 -8.53125 1.328125 -8.6875 C 1.421875 -8.757812 1.53125 -8.820312 1.65625 -8.875 C 1.789062 -8.9375 1.945312 -8.972656 2.125 -8.984375 C 2.25 -9.003906 2.40625 -9.015625 2.59375 -9.015625 C 2.789062 -9.015625 3.023438 -9.015625 3.296875 -9.015625 L 3.6875 -9.015625 Z M 4.1875 -12.75 "></path></g></g></g><g fill="#004aad" fill-opacity="1"><g transform="translate(63.927544, 13.931311)"><g><path d="M 1.09375 -6.484375 C 1.15625 -6.890625 1.203125 -7.222656 1.234375 -7.484375 C 1.273438 -7.753906 1.3125 -7.953125 1.34375 -8.078125 C 1.457031 -8.421875 1.597656 -8.65625 1.765625 -8.78125 C 1.929688 -8.90625 2.1875 -8.984375 2.53125 -9.015625 C 2.644531 -9.023438 2.78125 -9.03125 2.9375 -9.03125 C 3.09375 -9.03125 3.273438 -9.03125 3.484375 -9.03125 L 8.59375 -9.03125 C 8.84375 -9.03125 9.046875 -9.03125 9.203125 -9.03125 C 9.367188 -9.03125 9.5 -9.019531 9.59375 -9 C 9.945312 -8.96875 10.1875 -8.851562 10.3125 -8.65625 C 10.394531 -8.53125 10.4375 -8.320312 10.4375 -8.03125 C 10.4375 -8 10.4375 -7.960938 10.4375 -7.921875 C 10.4375 -7.890625 10.429688 -7.847656 10.421875 -7.796875 C 10.421875 -7.691406 10.40625 -7.53125 10.375 -7.3125 C 10.351562 -7.09375 10.320312 -6.816406 10.28125 -6.484375 L 10.1875 -5.8125 L 9.8125 -3.25 L 9.734375 -2.5625 C 9.691406 -2.257812 9.648438 -2 9.609375 -1.78125 C 9.578125 -1.570312 9.550781 -1.414062 9.53125 -1.3125 C 9.457031 -0.925781 9.347656 -0.640625 9.203125 -0.453125 C 9.054688 -0.253906 8.78125 -0.128906 8.375 -0.078125 C 8.125 -0.0351562 7.59375 -0.015625 6.78125 -0.015625 L 7.140625 -2.5625 L 7.234375 -3.25 L 7.59375 -5.8125 L 7.6875 -6.484375 C 7.5625 -6.484375 7.457031 -6.484375 7.375 -6.484375 C 7.289062 -6.484375 7.222656 -6.476562 7.171875 -6.46875 C 7.117188 -6.46875 7.0625 -6.4375 7 -6.375 C 6.988281 -6.363281 6.957031 -6.289062 6.90625 -6.15625 C 6.90625 -6.101562 6.882812 -5.988281 6.84375 -5.8125 L 6.484375 -3.25 L 6.390625 -2.5625 C 6.347656 -2.21875 6.304688 -1.925781 6.265625 -1.6875 C 6.234375 -1.445312 6.195312 -1.257812 6.15625 -1.125 C 6.082031 -0.800781 5.972656 -0.566406 5.828125 -0.421875 C 5.679688 -0.273438 5.460938 -0.164062 5.171875 -0.09375 C 5.046875 -0.0820312 4.84375 -0.0664062 4.5625 -0.046875 C 4.28125 -0.0234375 3.90625 -0.015625 3.4375 -0.015625 L 3.8125 -2.5625 L 3.90625 -3.25 L 4.265625 -5.8125 L 4.359375 -6.484375 C 4.140625 -6.484375 4.003906 -6.476562 3.953125 -6.46875 C 3.867188 -6.46875 3.804688 -6.445312 3.765625 -6.40625 C 3.753906 -6.394531 3.738281 -6.375 3.71875 -6.34375 C 3.695312 -6.3125 3.671875 -6.269531 3.640625 -6.21875 C 3.640625 -6.164062 3.625 -6.03125 3.59375 -5.8125 L 3.21875 -3.25 L 3.140625 -2.5625 C 3.023438 -1.800781 2.929688 -1.289062 2.859375 -1.03125 C 2.773438 -0.6875 2.628906 -0.441406 2.421875 -0.296875 C 2.265625 -0.171875 2.019531 -0.0859375 1.6875 -0.046875 C 1.570312 -0.0351562 1.390625 -0.0234375 1.140625 -0.015625 C 0.890625 -0.015625 0.570312 -0.015625 0.1875 -0.015625 L 0.546875 -2.5625 L 0.640625 -3.25 L 1 -5.8125 Z M 1.09375 -6.484375 "></path></g></g></g><g fill="#004aad" fill-opacity="1"><g transform="translate(73.997104, 13.931311)"><g><path d="M 3.90625 -9.03125 L 7.875 -9.03125 C 8.195312 -9.03125 8.46875 -9.03125 8.6875 -9.03125 C 8.90625 -9.03125 9.070312 -9.023438 9.1875 -9.015625 C 9.582031 -8.984375 9.851562 -8.910156 10 -8.796875 C 10.164062 -8.679688 10.25 -8.429688 10.25 -8.046875 C 10.25 -8.003906 10.25 -7.945312 10.25 -7.875 C 10.25 -7.8125 10.242188 -7.738281 10.234375 -7.65625 C 10.222656 -7.550781 10.203125 -7.398438 10.171875 -7.203125 C 10.148438 -7.015625 10.125 -6.773438 10.09375 -6.484375 L 9.984375 -5.796875 C 9.929688 -5.429688 9.882812 -5.128906 9.84375 -4.890625 C 9.8125 -4.648438 9.78125 -4.472656 9.75 -4.359375 C 9.675781 -4.023438 9.5625 -3.769531 9.40625 -3.59375 C 9.21875 -3.4375 8.957031 -3.335938 8.625 -3.296875 C 8.382812 -3.265625 7.945312 -3.25 7.3125 -3.25 L 3.484375 -3.25 C 3.335938 -3.25 3.242188 -3.238281 3.203125 -3.21875 C 3.140625 -3.21875 3.09375 -3.203125 3.0625 -3.171875 C 3.039062 -3.148438 3.015625 -3.078125 2.984375 -2.953125 C 2.984375 -2.898438 2.96875 -2.769531 2.9375 -2.5625 L 6.9375 -2.5625 C 7.65625 -2.5625 8.113281 -2.546875 8.3125 -2.515625 C 8.601562 -2.472656 8.800781 -2.378906 8.90625 -2.234375 C 9.050781 -2.085938 9.128906 -1.820312 9.140625 -1.4375 C 9.171875 -1.332031 9.1875 -1.1875 9.1875 -1 C 9.1875 -0.820312 9.1875 -0.59375 9.1875 -0.3125 L 9.1875 -0.015625 L 2.296875 -0.015625 C 1.929688 -0.015625 1.628906 -0.0234375 1.390625 -0.046875 C 1.148438 -0.0664062 0.96875 -0.0820312 0.84375 -0.09375 C 0.582031 -0.164062 0.398438 -0.28125 0.296875 -0.4375 C 0.222656 -0.570312 0.1875 -0.757812 0.1875 -1 L 0.1875 -1.125 C 0.195312 -1.351562 0.25 -1.84375 0.34375 -2.59375 L 0.890625 -6.484375 C 0.953125 -6.816406 1 -7.085938 1.03125 -7.296875 C 1.070312 -7.503906 1.097656 -7.664062 1.109375 -7.78125 C 1.203125 -8.226562 1.332031 -8.523438 1.5 -8.671875 C 1.6875 -8.835938 1.941406 -8.941406 2.265625 -8.984375 C 2.515625 -9.015625 3.0625 -9.03125 3.90625 -9.03125 Z M 3.9375 -6.46875 C 3.75 -6.46875 3.644531 -6.460938 3.625 -6.453125 C 3.601562 -6.453125 3.566406 -6.425781 3.515625 -6.375 C 3.503906 -6.363281 3.492188 -6.34375 3.484375 -6.3125 C 3.484375 -6.28125 3.46875 -6.25 3.4375 -6.21875 C 3.4375 -6.164062 3.421875 -6.03125 3.390625 -5.8125 L 7.15625 -5.8125 C 7.257812 -5.820312 7.332031 -5.851562 7.375 -5.90625 C 7.414062 -5.9375 7.4375 -5.984375 7.4375 -6.046875 C 7.445312 -6.117188 7.460938 -6.257812 7.484375 -6.46875 Z M 3.9375 -6.46875 "></path></g></g></g><g fill="#004aad" fill-opacity="1"><g transform="translate(83.884571, 13.931311)"><g><path d="M 1.09375 -6.453125 C 1.15625 -6.878906 1.207031 -7.222656 1.25 -7.484375 C 1.289062 -7.742188 1.320312 -7.929688 1.34375 -8.046875 C 1.457031 -8.398438 1.601562 -8.640625 1.78125 -8.765625 C 1.925781 -8.867188 2.144531 -8.941406 2.4375 -8.984375 C 2.550781 -9.003906 2.695312 -9.015625 2.875 -9.015625 C 3.050781 -9.015625 3.253906 -9.015625 3.484375 -9.015625 L 8.59375 -9.015625 C 8.84375 -9.015625 9.050781 -9.015625 9.21875 -9.015625 C 9.394531 -9.015625 9.539062 -9.003906 9.65625 -8.984375 C 9.90625 -8.941406 10.082031 -8.875 10.1875 -8.78125 C 10.332031 -8.675781 10.414062 -8.460938 10.4375 -8.140625 L 10.4375 -8.015625 C 10.4375 -7.773438 10.382812 -7.253906 10.28125 -6.453125 L 10.1875 -5.796875 L 9.8125 -3.21875 L 9.734375 -2.546875 C 9.679688 -2.179688 9.632812 -1.878906 9.59375 -1.640625 C 9.5625 -1.398438 9.523438 -1.21875 9.484375 -1.09375 C 9.453125 -0.945312 9.410156 -0.816406 9.359375 -0.703125 C 9.316406 -0.585938 9.257812 -0.492188 9.1875 -0.421875 C 9.039062 -0.265625 8.816406 -0.148438 8.515625 -0.078125 C 8.390625 -0.0546875 8.179688 -0.0351562 7.890625 -0.015625 C 7.597656 -0.00390625 7.226562 0 6.78125 0 L 7.140625 -2.546875 L 7.234375 -3.21875 L 7.59375 -5.796875 L 7.6875 -6.453125 L 4.359375 -6.453125 C 4.304688 -6.460938 4.257812 -6.46875 4.21875 -6.46875 C 4.175781 -6.46875 4.132812 -6.46875 4.09375 -6.46875 C 4.019531 -6.46875 3.972656 -6.460938 3.953125 -6.453125 C 3.890625 -6.453125 3.828125 -6.429688 3.765625 -6.390625 C 3.722656 -6.347656 3.679688 -6.273438 3.640625 -6.171875 C 3.640625 -6.128906 3.625 -6.003906 3.59375 -5.796875 L 3.21875 -3.21875 L 3.140625 -2.546875 C 3.085938 -2.148438 3.03125 -1.820312 2.96875 -1.5625 C 2.914062 -1.300781 2.875 -1.101562 2.84375 -0.96875 C 2.769531 -0.675781 2.632812 -0.453125 2.4375 -0.296875 C 2.28125 -0.179688 2.039062 -0.09375 1.71875 -0.03125 C 1.59375 -0.0195312 1.398438 -0.0078125 1.140625 0 C 0.890625 0 0.570312 0 0.1875 0 L 0.546875 -2.546875 L 0.640625 -3.21875 L 1 -5.796875 Z M 1.09375 -6.453125 "></path></g></g></g><g fill="#004aad" fill-opacity="1"><g transform="translate(93.954131, 13.931311)"><g><path d="M 4.1875 -12.75 C 4.894531 -12.75 5.378906 -12.734375 5.640625 -12.703125 C 6.140625 -12.660156 6.445312 -12.515625 6.5625 -12.265625 C 6.601562 -12.160156 6.625 -12 6.625 -11.78125 C 6.625 -11.738281 6.625 -11.679688 6.625 -11.609375 C 6.625 -11.546875 6.613281 -11.472656 6.59375 -11.390625 C 6.59375 -11.234375 6.539062 -10.832031 6.4375 -10.1875 L 6.265625 -9.015625 L 10.28125 -9.015625 C 10.164062 -8.203125 10.070312 -7.660156 10 -7.390625 C 9.914062 -7.097656 9.789062 -6.878906 9.625 -6.734375 C 9.445312 -6.617188 9.175781 -6.535156 8.8125 -6.484375 C 8.695312 -6.472656 8.515625 -6.460938 8.265625 -6.453125 C 8.023438 -6.453125 7.710938 -6.453125 7.328125 -6.453125 L 5.90625 -6.453125 L 5.8125 -5.796875 L 5.453125 -3.21875 L 5.359375 -2.546875 L 9.359375 -2.546875 C 9.316406 -2.171875 9.273438 -1.859375 9.234375 -1.609375 C 9.203125 -1.367188 9.164062 -1.1875 9.125 -1.0625 C 9.03125 -0.71875 8.910156 -0.472656 8.765625 -0.328125 C 8.609375 -0.191406 8.34375 -0.09375 7.96875 -0.03125 C 7.84375 -0.0195312 7.660156 -0.0078125 7.421875 0 C 7.179688 0 6.890625 0 6.546875 0 L 4.875 0 C 4.5625 0 4.296875 0 4.078125 0 C 3.859375 -0.0078125 3.679688 -0.015625 3.546875 -0.015625 C 3.085938 -0.0664062 2.789062 -0.1875 2.65625 -0.375 C 2.582031 -0.507812 2.546875 -0.6875 2.546875 -0.90625 L 2.546875 -1.1875 C 2.585938 -1.425781 2.660156 -1.878906 2.765625 -2.546875 L 2.859375 -3.21875 L 3.21875 -5.796875 L 3.3125 -6.453125 L 0.734375 -6.453125 C 0.773438 -6.773438 0.8125 -7.046875 0.84375 -7.265625 C 0.882812 -7.484375 0.910156 -7.648438 0.921875 -7.765625 C 1.035156 -8.222656 1.171875 -8.53125 1.328125 -8.6875 C 1.421875 -8.757812 1.53125 -8.820312 1.65625 -8.875 C 1.789062 -8.9375 1.945312 -8.972656 2.125 -8.984375 C 2.25 -9.003906 2.40625 -9.015625 2.59375 -9.015625 C 2.789062 -9.015625 3.023438 -9.015625 3.296875 -9.015625 L 3.6875 -9.015625 Z M 4.1875 -12.75 "></path></g></g></g><g fill="#004aad" fill-opacity="1"><g transform="translate(103.604871, 13.931311)"><g><path d="M 0.890625 -6.46875 C 1.003906 -7.257812 1.097656 -7.769531 1.171875 -8 C 1.265625 -8.363281 1.398438 -8.613281 1.578125 -8.75 C 1.742188 -8.863281 1.988281 -8.941406 2.3125 -8.984375 C 2.445312 -9.003906 2.625 -9.015625 2.84375 -9.015625 C 3.070312 -9.015625 3.351562 -9.015625 3.6875 -9.015625 L 10.4375 -9.015625 C 10.382812 -8.609375 10.332031 -8.265625 10.28125 -7.984375 C 10.226562 -7.710938 10.175781 -7.507812 10.125 -7.375 C 10.019531 -7.019531 9.835938 -6.78125 9.578125 -6.65625 C 9.503906 -6.613281 9.421875 -6.582031 9.328125 -6.5625 C 9.242188 -6.550781 9.132812 -6.53125 9 -6.5 C 8.894531 -6.488281 8.738281 -6.476562 8.53125 -6.46875 C 8.320312 -6.46875 8.070312 -6.46875 7.78125 -6.46875 L 4.203125 -6.46875 C 4.085938 -6.46875 3.984375 -6.46875 3.890625 -6.46875 C 3.796875 -6.46875 3.734375 -6.460938 3.703125 -6.453125 C 3.617188 -6.421875 3.554688 -6.382812 3.515625 -6.34375 C 3.492188 -6.3125 3.46875 -6.253906 3.4375 -6.171875 C 3.4375 -6.128906 3.421875 -6.003906 3.390625 -5.796875 L 7.390625 -5.796875 C 7.753906 -5.796875 8.054688 -5.796875 8.296875 -5.796875 C 8.535156 -5.796875 8.707031 -5.78125 8.8125 -5.75 C 9.21875 -5.71875 9.476562 -5.625 9.59375 -5.46875 C 9.71875 -5.34375 9.78125 -5.101562 9.78125 -4.75 L 9.78125 -4.640625 C 9.78125 -4.535156 9.765625 -4.363281 9.734375 -4.125 C 9.710938 -3.882812 9.679688 -3.582031 9.640625 -3.21875 L 9.546875 -2.5625 C 9.492188 -2.164062 9.441406 -1.832031 9.390625 -1.5625 C 9.335938 -1.300781 9.289062 -1.101562 9.25 -0.96875 C 9.175781 -0.71875 9.09375 -0.535156 9 -0.421875 C 8.851562 -0.242188 8.644531 -0.132812 8.375 -0.09375 C 8.257812 -0.0625 8.046875 -0.0351562 7.734375 -0.015625 C 7.429688 -0.00390625 7.050781 0 6.59375 0 L 2.59375 0 C 2.113281 0 1.726562 -0.00390625 1.4375 -0.015625 C 1.144531 -0.0351562 0.929688 -0.0625 0.796875 -0.09375 C 0.578125 -0.15625 0.414062 -0.242188 0.3125 -0.359375 C 0.226562 -0.492188 0.1875 -0.703125 0.1875 -0.984375 C 0.1875 -1.234375 0.238281 -1.757812 0.34375 -2.5625 L 6.765625 -2.5625 C 6.796875 -2.59375 6.828125 -2.613281 6.859375 -2.625 C 6.890625 -2.632812 6.910156 -2.644531 6.921875 -2.65625 C 6.972656 -2.726562 7 -2.800781 7 -2.875 C 7.019531 -2.945312 7.035156 -3.0625 7.046875 -3.21875 L 2.59375 -3.21875 C 2.34375 -3.21875 2.125 -3.222656 1.9375 -3.234375 C 1.757812 -3.242188 1.617188 -3.253906 1.515625 -3.265625 C 1.171875 -3.296875 0.921875 -3.378906 0.765625 -3.515625 C 0.640625 -3.660156 0.578125 -3.867188 0.578125 -4.140625 L 0.578125 -4.359375 C 0.609375 -4.492188 0.640625 -4.675781 0.671875 -4.90625 C 0.710938 -5.144531 0.753906 -5.441406 0.796875 -5.796875 Z M 0.890625 -6.46875 "></path></g></g></g></g></g></svg>